<?xml version="1.0" encoding="utf-8"?>
<!-- Generator: Adobe Illustrator 16.0.0, SVG Export Plug-In . SVG Version: 6.00 Build 0)  -->
<!DOCTYPE svg PUBLIC "-//W3C//DTD SVG 1.1//EN" "http://www.w3.org/Graphics/SVG/1.1/DTD/svg11.dtd">
<svg version="1.1" id="Layer_1" xmlns="http://www.w3.org/2000/svg" xmlns:xlink="http://www.w3.org/1999/xlink" x="0px" y="0px"
	 width="24px" height="24px" viewBox="0 0 24 24" enable-background="new 0 0 24 24" xml:space="preserve">
<g>
	<path fill="#F04E24" d="M8.339,16.622c-0.581-0.336-1.385-0.336-2.039-0.336H4.159v4.421h1.968c0.729,0,1.658,0.052,2.287-0.391
		c0.578-0.387,0.902-1.149,0.902-1.877C9.316,17.768,8.916,16.96,8.339,16.622z M7.529,12.848c0.477-0.363,0.729-1.012,0.729-1.606
		c0-0.649-0.302-1.271-0.854-1.608c-0.578-0.339-1.634-0.26-2.312-0.26H4.159v3.891h1.235C6.097,13.262,6.925,13.313,7.529,12.848z
		 M7.373,24H0V6.208h8.053c2.333,0,4.487,1.484,4.487,4.104c0,2.022-1.13,3.409-2.569,3.838v0.053
		c2.135,0.441,3.66,1.602,3.66,4.398C13.631,21.191,11.868,24,7.373,24z"/>
</g>
</svg>
