<?xml version="1.0" encoding="utf-8"?>
<!-- Generator: Adobe Illustrator 16.0.0, SVG Export Plug-In . SVG Version: 6.00 Build 0)  -->
<!DOCTYPE svg PUBLIC "-//W3C//DTD SVG 1.1//EN" "http://www.w3.org/Graphics/SVG/1.1/DTD/svg11.dtd">
<svg version="1.1" id="Layer_1" xmlns="http://www.w3.org/2000/svg" xmlns:xlink="http://www.w3.org/1999/xlink" x="0px" y="0px"
	 width="24px" height="24px" viewBox="0 0 24 24" enable-background="new 0 0 24 24" xml:space="preserve">
<g>
	<path id="Facebook" fill="#F04E24" d="M2.421,4.647c0,0.605,0,3.305,0,3.305H0v4.041h2.421V24h4.973V11.994h3.337
		c0,0,0.313-1.938,0.465-4.057c-0.435,0-3.782,0-3.782,0s0-2.351,0-2.763c0-0.413,0.542-0.969,1.078-0.969c0.534,0,1.663,0,2.71,0
		c0-0.549,0-2.451,0-4.206C9.805,0,8.216,0,7.516,0C2.298,0,2.421,4.044,2.421,4.647z"/>
</g>
</svg>
