<?xml version="1.0" encoding="utf-8"?>
<!-- Generator: Adobe Illustrator 16.0.0, SVG Export Plug-In . SVG Version: 6.00 Build 0)  -->
<!DOCTYPE svg PUBLIC "-//W3C//DTD SVG 1.1//EN" "http://www.w3.org/Graphics/SVG/1.1/DTD/svg11.dtd">
<svg version="1.1" id="Layer_1" xmlns="http://www.w3.org/2000/svg" xmlns:xlink="http://www.w3.org/1999/xlink" x="0px" y="0px"
	 width="50px" height="70px" viewBox="0 0 50 70" enable-background="new 0 0 50 70" xml:space="preserve">
<g>
	<polygon fill="#F04F24" points="24.998,70 3.382,26.763 24.998,0.039 46.618,26.763 	"/>
	<g opacity="0.3">
		<path fill="#040404" d="M37.758,27.666c-1.005-2.033-2.781-3.625-4.939-4.39l-3.562-7.126l0,0c-3.071,0-5.455,2.415-6.573,6.625
			h-7.545c-4.83,0-8.761,3.93-8.761,8.764c0,2.332,0.914,4.452,2.403,6.024c0-0.002,16.216,32.438,16.216,32.438L41.964,36.07
			L37.758,27.666z"/>
	</g>
	<g>
		<path fill="#FFFFFF" d="M29.899,22.775h-14.76c-4.83,0-8.761,3.93-8.761,8.763c0,4.83,3.931,8.764,8.761,8.764h14.76
			c4.834,0,8.761-3.935,8.761-8.764C38.66,26.705,34.733,22.775,29.899,22.775z M29.899,36.94h-14.76
			c-2.98,0-5.405-2.421-5.405-5.403c0-2.981,2.425-5.409,5.405-5.409h14.76c2.984,0,5.405,2.428,5.405,5.409
			C35.305,34.52,32.884,36.94,29.899,36.94z"/>
	</g>
	<g>
		<path fill="#FFFFFF" d="M15.948,51.953l-1.745-3.484c1.092-0.547,2.194-1.52,3.146-4.984c0.635-2.315,5.241-20.338,5.287-20.517
			c1.092-4.328,3.508-6.816,6.622-6.816l0,0v3.896c-1.777,0-2.686,3.23-2.849,3.88c-0.19,0.746-4.66,18.236-5.308,20.591
			C20.041,48.394,18.457,50.688,15.948,51.953z"/>
	</g>
	<polygon opacity="0.3" fill="#040404" enable-background="new    " points="25.428,36.94 23.07,36.94 22.205,40.303 24.562,40.303 
			"/>
	<polygon opacity="0.3" fill="#040404" enable-background="new    " points="25.239,28.496 21.218,28.496 21.825,26.13 
		25.844,26.13 	"/>
</g>
</svg>
