<?xml version="1.0" encoding="utf-8"?>
<!-- Generator: Adobe Illustrator 16.0.0, SVG Export Plug-In . SVG Version: 6.00 Build 0)  -->
<!DOCTYPE svg PUBLIC "-//W3C//DTD SVG 1.1//EN" "http://www.w3.org/Graphics/SVG/1.1/DTD/svg11.dtd">
<svg version="1.1" id="Layer_1" xmlns="http://www.w3.org/2000/svg" xmlns:xlink="http://www.w3.org/1999/xlink" x="0px" y="0px"
	 width="20px" height="32px" viewBox="0 0 20 32" enable-background="new 0 0 20 32" xml:space="preserve">
<g>
	<polygon fill="#F04D23" points="10,31.952 0.142,12.231 10,0.048 19.857,12.231 	"/>
	<g opacity="0.3">
		<path fill="#030303" d="M15.82,12.646c-0.459-0.926-1.27-1.652-2.256-2.001l-1.623-3.253l0,0c-1.399,0-2.488,1.103-2.998,3.024
			H5.502c-2.203,0-3.995,1.792-3.995,3.993c0,1.065,0.416,2.034,1.096,2.75L10,31.952l7.737-15.472L15.82,12.646z"/>
	</g>
	<g>
		<path fill="#FFFFFF" d="M12.234,10.416H5.502c-2.203,0-3.995,1.792-3.995,3.993c0,2.206,1.792,3.997,3.995,3.997h6.732
			c2.203,0,3.998-1.791,3.998-3.997C16.232,12.208,14.438,10.416,12.234,10.416z M12.234,16.875H5.502
			c-1.358,0-2.464-1.107-2.464-2.466c0-1.359,1.105-2.463,2.464-2.463h6.732c1.361,0,2.467,1.104,2.467,2.463
			C14.701,15.768,13.596,16.875,12.234,16.875z"/>
	</g>
	<g>
		<path fill="#FFFFFF" d="M5.873,23.721l-0.796-1.592c0.499-0.246,1.001-0.688,1.433-2.271C6.801,18.801,8.9,10.584,8.92,10.5
			c0.501-1.974,1.601-3.108,3.021-3.108l0,0v1.777c-0.811,0-1.225,1.476-1.299,1.769c-0.086,0.344-2.124,8.32-2.42,9.391
			C7.738,22.097,7.015,23.143,5.873,23.721z"/>
	</g>
	<polygon opacity="0.3" fill="#030303" points="10.195,16.875 9.121,16.875 8.725,18.406 9.8,18.406 	"/>
	<polygon opacity="0.3" fill="#030303" points="10.109,13.022 8.277,13.022 8.552,11.946 10.384,11.946 	"/>
</g>
</svg>
